<svg xmlns="http://www.w3.org/2000/svg" width="24" height="20" viewBox="0 0 24 20">
  <path d="M8.548,21c9.057,0,14.01-7.694,14.01-14.365q0-.328-.014-.653A10.157,10.157,0,0,0,25,3.367a9.631,9.631,0,0,1-2.828.795A5.046,5.046,0,0,0,24.338,1.37,9.729,9.729,0,0,1,21.211,2.6,4.862,4.862,0,0,0,17.617,1a4.988,4.988,0,0,0-4.924,5.048A5.162,5.162,0,0,0,12.82,7.2,13.869,13.869,0,0,1,2.67,1.924,5.133,5.133,0,0,0,2,4.462a5.08,5.08,0,0,0,2.191,4.2,4.8,4.8,0,0,1-2.23-.631c0,.021,0,.042,0,.064a5.02,5.02,0,0,0,3.95,4.949,4.8,4.8,0,0,1-2.224.087,4.947,4.947,0,0,0,4.6,3.507A9.759,9.759,0,0,1,1,18.732,13.689,13.689,0,0,0,8.548,21" transform="translate(-1 -1)" fill="#000"/>
</svg>
